<?xml version="1.0" standalone="no"?>
<!DOCTYPE svg PUBLIC "-//W3C//DTD SVG 20010904//EN"
 "http://www.w3.org/TR/2001/REC-SVG-20010904/DTD/svg10.dtd">
<svg version="1.0" xmlns="http://www.w3.org/2000/svg"
 width="580.000000pt" height="580.000000pt" viewBox="0 0 580.000000 580.000000"
 preserveAspectRatio="xMidYMid meet">
<metadata>
Created by potrace 1.14, written by Peter Selinger 2001-2017
</metadata>
<g transform="translate(0.000000,580.000000) scale(0.100000,-0.100000)"
fill="#000000" stroke="none">
<path d="M100 5796 c0 -2 4 -25 9 -52 5 -27 12 -69 16 -94 9 -65 54 -330 61
-363 3 -16 16 -32 27 -38 12 -5 31 -15 42 -21 11 -7 49 -31 86 -54 54 -34 70
-50 91 -95 24 -50 46 -116 55 -164 2 -11 10 -54 19 -95 9 -41 18 -86 20 -100
2 -14 9 -47 14 -75 6 -27 12 -64 14 -82 3 -18 8 -42 11 -54 4 -11 8 -31 10
-42 1 -12 6 -40 10 -62 4 -22 9 -47 10 -55 2 -8 10 -49 19 -90 8 -41 17 -88
19 -105 3 -16 8 -46 11 -65 4 -19 9 -44 11 -55 2 -11 4 -20 5 -20 1 0 3 -11 5
-25 2 -14 6 -38 10 -55 22 -111 36 -182 36 -195 1 -8 5 -28 9 -45 5 -16 11
-46 14 -65 3 -19 14 -80 24 -135 24 -119 34 -175 38 -195 1 -8 7 -40 13 -70 6
-30 13 -68 16 -85 3 -16 10 -50 15 -75 5 -25 12 -58 14 -75 3 -16 7 -40 10
-51 4 -22 15 -82 21 -119 8 -49 16 -92 22 -110 3 -11 7 -31 9 -45 3 -22 19
-105 38 -205 4 -16 9 -46 12 -65 3 -19 7 -43 10 -52 8 -26 14 -59 20 -103 3
-22 9 -56 14 -75 5 -19 12 -57 16 -85 3 -27 8 -53 10 -56 2 -4 6 -24 9 -45 4
-22 8 -47 11 -56 3 -10 7 -30 10 -45 4 -30 16 -91 20 -108 1 -5 7 -37 13 -70
6 -33 13 -71 16 -85 3 -14 8 -41 11 -60 3 -19 7 -42 9 -50 2 -8 7 -31 10 -50
3 -19 8 -42 10 -50 2 -8 7 -31 10 -50 3 -19 10 -57 15 -85 6 -27 12 -61 15
-75 3 -14 7 -36 10 -50 2 -14 7 -41 10 -60 3 -19 8 -43 11 -53 3 -10 8 -32 11
-50 2 -18 6 -41 8 -52 3 -11 6 -31 8 -45 3 -14 14 -72 25 -130 12 -58 24 -121
27 -140 3 -19 8 -42 10 -50 2 -8 7 -35 10 -60 4 -24 8 -47 11 -51 2 -3 6 -21
8 -40 3 -19 7 -45 10 -59 3 -14 10 -47 16 -75 6 -27 12 -63 14 -80 3 -16 12
-69 22 -118 l17 -87 440 2 c382 3 440 5 443 18 2 15 9 49 20 100 3 14 7 32 9
40 2 8 4 17 5 20 1 3 2 8 2 11 -1 4 3 22 9 40 6 19 12 44 15 55 2 12 29 131
60 265 30 134 58 255 60 269 3 14 10 43 16 65 5 22 12 51 14 65 3 14 7 33 10
42 3 9 7 25 9 35 3 18 62 280 71 318 3 11 7 31 10 45 3 14 9 39 14 55 5 17 11
41 14 55 6 35 38 175 103 455 30 132 57 247 58 255 2 8 16 67 30 130 14 63 28
124 30 135 3 11 9 38 14 60 17 68 51 221 56 246 8 44 39 159 42 156 1 -2 10
-37 19 -78 20 -92 22 -103 24 -109 1 -3 2 -8 2 -11 0 -3 3 -23 9 -45 16 -67
48 -208 53 -234 2 -14 25 -117 51 -230 25 -113 50 -223 54 -245 5 -22 43 -193
85 -380 43 -187 79 -349 81 -360 7 -40 16 -81 25 -115 5 -19 11 -46 14 -60 3
-14 14 -67 26 -117 28 -127 60 -271 70 -313 4 -19 17 -78 28 -130 12 -52 35
-156 52 -229 29 -131 40 -180 45 -211 1 -8 5 -27 10 -43 l7 -27 388 0 c214 0
391 3 393 8 3 4 8 23 11 42 3 19 8 46 11 60 19 94 36 179 41 200 2 14 11 57
19 95 7 39 16 81 19 95 4 14 8 39 10 55 3 17 10 53 16 80 7 28 14 61 16 75 2
14 9 48 15 75 6 28 12 64 15 80 2 17 7 41 10 55 5 22 17 78 28 135 30 145 38
185 42 214 2 19 7 37 9 41 3 4 7 25 10 46 4 22 8 47 11 56 3 10 7 30 10 45 7
43 11 60 34 173 11 58 23 116 26 130 2 14 9 45 14 70 5 25 12 56 14 70 3 14 7
34 9 45 10 47 20 101 23 120 2 16 28 144 48 240 12 56 28 133 32 155 2 14 7
36 10 50 3 14 8 36 10 50 2 14 7 36 10 50 3 14 8 39 11 55 3 17 11 62 20 100
8 39 17 81 19 95 3 14 14 70 25 125 12 55 23 111 26 125 2 14 19 103 38 198
19 96 37 183 39 195 2 12 7 33 10 47 3 14 8 39 11 55 3 17 8 39 10 50 2 11 6
31 9 45 4 14 9 41 12 60 3 19 7 43 10 52 3 10 7 30 10 45 3 16 7 35 9 43 2 8
7 31 10 50 3 19 22 114 41 210 20 96 38 186 41 200 2 14 22 113 43 220 21 107
44 222 49 255 19 103 28 150 31 150 1 0 4 13 6 30 3 16 15 54 27 85 19 48 26
55 52 57 90 6 125 10 129 14 5 4 13 56 21 139 8 68 11 101 18 165 4 28 9 79
13 115 3 36 8 73 9 82 2 9 6 42 10 72 l6 56 -886 0 c-586 0 -884 -3 -880 -10
6 -10 15 -42 19 -70 1 -8 10 -49 20 -90 36 -153 55 -236 60 -260 27 -127 39
-176 47 -185 5 -5 48 -10 96 -12 48 -2 89 -6 92 -8 12 -13 4 -162 -14 -260
-10 -56 -87 -449 -105 -545 -25 -124 -32 -162 -35 -180 -1 -8 -7 -42 -14 -74
-7 -33 -14 -69 -16 -80 -1 -12 -5 -30 -8 -41 -3 -11 -8 -36 -11 -55 -3 -19
-10 -60 -16 -90 -6 -30 -13 -66 -16 -80 -5 -30 -22 -116 -30 -150 -2 -14 -9
-50 -15 -80 -6 -30 -11 -59 -13 -65 -1 -5 -6 -32 -11 -60 -4 -27 -10 -54 -13
-60 -6 -9 -17 28 -26 80 -1 11 -6 29 -9 40 -3 11 -9 31 -11 45 -3 14 -11 48
-17 75 -6 28 -12 59 -14 70 -2 11 -17 76 -33 145 -17 69 -33 136 -36 150 -5
26 -63 279 -72 315 -3 11 -7 29 -8 40 -9 54 -17 86 -26 111 -6 15 -8 29 -6 31
3 3 0 17 -6 32 -5 14 -12 40 -15 56 -2 17 -11 55 -18 85 -8 30 -16 66 -19 80
-2 14 -12 57 -21 95 -9 39 -18 79 -20 90 -6 28 -11 51 -30 131 -23 100 -32
137 -55 244 -12 52 -30 131 -40 175 -11 44 -21 91 -23 105 -3 14 -10 45 -17
70 -7 25 -14 58 -16 74 -2 16 -6 31 -9 35 -4 3 -151 6 -327 6 l-320 0 -9 -23
c-5 -13 -11 -35 -14 -50 -2 -15 -19 -88 -36 -162 -16 -74 -32 -144 -34 -155
-2 -11 -16 -72 -30 -135 -15 -63 -28 -122 -30 -130 -2 -8 -9 -37 -15 -65 -6
-27 -13 -57 -15 -65 -2 -8 -18 -78 -35 -155 -18 -77 -34 -149 -36 -160 -3 -11
-7 -31 -10 -45 -3 -14 -17 -72 -30 -130 -14 -58 -27 -114 -30 -125 -2 -11 -6
-31 -9 -45 -3 -14 -7 -34 -9 -45 -3 -11 -14 -59 -25 -107 -11 -47 -23 -101
-26 -119 -3 -18 -8 -36 -10 -40 -4 -6 -29 -114 -41 -179 -3 -14 -9 -42 -15
-63 -6 -21 -12 -54 -15 -73 -2 -20 -9 -44 -14 -55 -6 -10 -9 -19 -6 -19 2 0
-2 -24 -10 -52 -8 -29 -17 -69 -20 -88 -3 -19 -7 -43 -10 -52 -3 -9 -7 -26 -9
-37 -3 -12 -7 -31 -11 -43 -3 -13 -7 -34 -10 -48 -2 -14 -7 -31 -10 -39 -2 -8
-7 -30 -10 -50 -13 -81 -21 -73 -40 39 -6 31 -35 188 -40 215 -2 11 -8 45 -14
75 -6 30 -12 66 -15 80 -3 14 -9 50 -15 80 -13 73 -18 95 -31 158 -6 29 -13
67 -16 85 -9 57 -9 62 -17 92 -3 17 -8 44 -11 60 -2 17 -16 91 -30 165 -29
155 -31 166 -45 240 -6 30 -12 66 -15 80 -3 14 -7 41 -11 60 -3 19 -9 55 -14
80 -6 25 -12 57 -15 73 -3 15 -7 37 -9 50 -3 12 -7 39 -10 61 -4 21 -8 41 -10
45 -2 3 -7 27 -10 53 -4 26 -9 53 -11 60 -5 12 -10 42 -19 114 -5 32 -4 33
136 71 20 5 24 16 38 133 6 47 13 99 15 115 2 17 7 53 10 80 3 28 8 59 10 70
3 11 7 43 10 70 3 28 7 67 9 88 l5 37 -955 0 c-524 0 -954 -2 -954 -4z"/>
</g>
</svg>
